<svg width="860" height="540" viewBox="0 0 860 540" fill="none" xmlns="http://www.w3.org/2000/svg">
<path d="M-388 604.084C-298.219 603.946 -206.239 610.995 -116.769 598.671C-14.0575 584.643 86.2847 541.361 188.615 523.278C274.49 508.121 353.85 522.219 436.679 560.295C507.592 592.913 576.278 625.576 650.66 625.645C724.211 625.645 789.639 582.224 859.438 550.528C938.954 514.433 1012.28 524.937 1089.97 568.542C1169.05 612.907 1241.66 665.288 1327.08 664.136C1433.54 662.57 1535.78 603.025 1642.53 604.084" stroke="url(#paint0_linear_511_3350)" stroke-opacity="0.1" stroke-width="3" stroke-miterlimit="10"/>
<path d="M-388 572.895C-300.49 572.688 -209.891 580.52 -122.903 565.363C-15.4817 546.659 88.6113 495.014 195.651 471.703C282.725 452.745 358.306 473.016 439.795 523.739C507.028 565.593 573.063 610.949 646.233 612.377C723.562 613.897 793.277 554.26 864.797 514.11C947.386 467.741 1017.9 477.6 1097.72 534.105C1173.72 587.914 1244.59 656.996 1330.38 653.126C1436.46 648.334 1536 575.107 1642.51 572.895" stroke="url(#paint1_linear_511_3350)" stroke-opacity="0.1" stroke-width="3" stroke-miterlimit="10"/>
<path d="M-388 542.213C-302.732 541.936 -213.543 550.275 -128.91 532.607C-16.8918 509.227 90.9662 449.474 202.462 420.957C291.298 398.222 362.592 424.251 442.361 488.334C505.449 539.011 568.818 597.542 640.973 600.629C722.081 604.061 797.395 526.595 870.564 478.982C908.891 454.173 949.29 430.931 991.071 436.275C1031.96 441.527 1070.68 469.653 1106.44 500.773C1178.53 563.359 1248.75 649.509 1334.53 642.921C1440.14 634.79 1536.35 547.925 1642.55 542.282" stroke="url(#paint2_linear_511_3350)" stroke-opacity="0.1" stroke-width="3" stroke-miterlimit="10"/>
<path d="M-387.93 512.06C-304.735 511.715 -216.999 520.26 -134.678 500.543C-18.3875 472.763 92.8407 405.293 208.468 371.847C299.335 345.541 366.511 376.845 444.123 454.127C502.966 512.728 563.685 584.343 635.19 589.204C719.796 594.94 801.581 499.253 876.147 445.098C915.207 416.719 958.285 386.796 1001.91 393.384C1042.81 399.558 1081.12 433.281 1115.31 468.248C1183.49 537.997 1252.99 641.539 1338.98 632.302C1444.15 620.969 1536.65 520.905 1642.56 512.06" stroke="url(#paint3_linear_511_3350)" stroke-opacity="0.1" stroke-width="3" stroke-miterlimit="10"/>
<path d="M-387.915 482.437C-306.708 482.023 -220.269 490.569 -140.049 469.399C-19.9652 437.68 94.2523 363.094 213.462 325.178C258.852 310.758 301.874 302.42 346.335 327.712C382.56 348.328 414.428 384.516 445.168 421.095C500.162 486.491 558.215 570.361 629.552 576.926C717.259 585.012 805.616 471.979 881.394 412.296C921.131 380.992 966.86 344.735 1012.15 352.405C1053.23 359.316 1091.03 398.176 1123.76 436.552C1188.31 512.198 1256.99 631.934 1343.44 620.347C1448.22 606.273 1536.89 493.816 1642.62 482.322" stroke="url(#paint4_linear_511_3350)" stroke-opacity="0.1" stroke-width="3" stroke-miterlimit="10"/>
<path d="M-387.902 453.298C-308.401 452.86 -223.133 461.36 -144.76 439.224C-21.6303 404.441 94.7587 323.45 216.971 281.965C262.517 266.508 305.412 256.926 349.647 285.627C385.534 309.054 416.119 349.25 445.364 389.422C497.129 460.439 552.757 554.836 624.446 562.783C670.26 567.874 716.328 528.829 755.895 495.774C799.791 459.103 841.995 417.318 885.877 380.6C926.206 346.877 974.149 305.506 1020.96 314.144C1062.34 321.769 1099.55 364.591 1131.11 405.823C1192.7 486.445 1260.07 619.725 1347.36 606.227C1451.96 590.102 1536.92 466.451 1642.63 453.206" stroke="url(#paint5_linear_511_3350)" stroke-opacity="0.1" stroke-width="3" stroke-miterlimit="10"/>
<path d="M-387.888 424.689C-309.811 424.251 -225.445 432.774 -148.581 410.223C-23.2803 373.482 94.4624 286.963 218.72 242.898C264.054 226.773 307.274 216.477 351.057 247.228C386.902 272.405 416.57 316.056 444.758 358.993C494.365 434.525 547.892 536.753 620.455 545.576C667.524 551.242 714.931 508.95 755.119 473.983C800.482 434.479 843.955 389.515 889.318 349.964C930.21 314.283 979.563 269.664 1027.63 278.763C1069.44 286.687 1106.02 332.181 1136.72 375.786C1196.41 460.531 1261.72 603.37 1350.4 588.974C1455 571.997 1536.72 438.418 1642.65 424.781" stroke="url(#paint6_linear_511_3350)" stroke-opacity="0.1" stroke-width="3" stroke-miterlimit="10"/>
<path d="M-387.859 396.586C-310.882 396.218 -227.038 404.902 -151.302 382.535C-24.9436 345.218 93.1234 254.162 218.34 208.898C263.054 192.774 307.077 182.27 350.24 213.229C386.38 239.143 415.64 285.143 443.306 329.9C492.123 409.002 544.071 515.331 618.157 523.9C666.27 529.474 713.804 486.745 754.556 450.188C800.877 408.726 845.154 361.458 891.461 319.949C932.876 282.817 982.441 237.484 1031.5 246.514C1073.8 254.3 1109.76 300.623 1140.07 346.094C1199.3 434.893 1261.5 581.349 1352.25 567.09C1457.12 550.62 1536.37 408.818 1642.73 396.632" stroke="url(#paint7_linear_511_3350)" stroke-opacity="0.1" stroke-width="3" stroke-miterlimit="10"/>
<path d="M-387.845 368.944C-311.15 368.161 -227.574 377.928 -152.162 355.123C-26.6639 317.093 89.8944 223.318 214.124 176.995C258.711 160.387 302.706 150.436 345.84 181.026C382.503 207.078 412.34 253.632 440.415 298.941C490.135 379.195 542.633 486.883 617.692 496.926C666.143 503.399 713.395 461.199 754.33 424.067C800.722 381.959 844.914 333.77 891.292 291.639C932.904 253.816 982.215 209.105 1031.64 218.78C1074.22 227.119 1109.97 273.534 1140.34 319.512C1199.81 409.555 1260.82 554.076 1352.29 540.646C1457.46 525.259 1535.89 379.586 1642.69 368.944" stroke="url(#paint8_linear_511_3350)" stroke-opacity="0.1" stroke-width="3" stroke-miterlimit="10"/>
<path d="M-387.831 341.925C-310.812 340.496 -227.489 352.82 -151.81 328.426C-28.5395 288.691 85.396 193.373 207.355 145.414C252.478 127.654 295.317 118.417 339.072 149.215C376.397 175.452 407.292 221.521 436.396 266.439C487.766 345.817 542.478 454.588 617.537 468.294C665.691 477.093 713.113 434.778 753.695 397.669C799.523 355.769 843.053 307.534 888.867 265.587C930.394 227.556 979.705 183.191 1029.06 194.686C1071.52 204.568 1107.78 251.651 1138.58 297.122C1198.35 385.345 1261.13 527.148 1351.5 514.11C1456.92 498.884 1535.61 352.382 1642.66 341.925" stroke="url(#paint9_linear_511_3350)" stroke-opacity="0.1" stroke-width="3" stroke-miterlimit="10"/>
<path d="M-387.802 315.365C-310.346 313.661 -227.249 329.417 -151.104 303.595C-30.344 262.639 80.6162 166.076 200.009 117.012C245.512 98.2617 287.35 89.9001 331.599 120.306C369.502 146.359 401.638 191.23 431.828 235.803C484.918 314.122 542.154 422.501 617.142 439.523C664.86 450.373 711.915 408.933 752.131 371.985C797.183 330.522 839.796 282.587 884.82 241.147C926.221 203.047 975.066 159.949 1024.19 173.079C1066.69 184.458 1103.61 231.749 1135.1 276.736C1195.66 363.117 1260.5 501.372 1350.18 488.519C1456.06 473.362 1535.18 325.915 1642.7 315.504" stroke="url(#paint10_linear_511_3350)" stroke-opacity="0.1" stroke-width="3" stroke-miterlimit="10"/>
<path d="M-387.774 289.313C-309.782 287.677 -226.727 307.602 -150.047 280.467C-32.0501 238.751 75.681 141.199 192.268 91.282C237.955 71.7254 279.002 64.3773 323.618 93.908C362.198 119.431 395.532 163.013 426.893 206.779C482.197 283.692 541.435 390.505 616.635 410.66C663.789 423.284 710.011 383.641 749.832 346.946C793.898 306.313 835.425 258.792 879.462 218.112C920.707 179.989 968.608 139.033 1017.44 153.614C1060.14 166.399 1097.81 213.505 1130.25 257.87C1192.02 342.339 1259.17 476.356 1348.37 463.572C1454.91 448.299 1534.63 299.863 1642.8 289.382" stroke="url(#paint11_linear_511_3350)" stroke-opacity="0.1" stroke-width="3" stroke-miterlimit="10"/>
<path d="M-387.76 263.767C-309.133 262.477 -226.107 287.194 -148.735 258.884C-33.6996 216.799 70.6049 118.371 184.188 68.1781C229.847 47.9535 270.33 41.665 315.171 69.9057C354.442 94.6452 388.947 136.707 421.591 179.137C479.405 254.3 540.448 358.556 615.93 381.614C707.022 409.463 799.073 264.527 872.891 196.206C913.981 158.152 960.585 120.03 1008.99 135.993C1052.03 150.205 1090.5 196.851 1124.04 240.548C1187.38 323.036 1257.04 452.262 1346.02 439.408C1453.34 423.929 1533.83 274.409 1642.77 263.767" stroke="url(#paint12_linear_511_3350)" stroke-opacity="0.1" stroke-width="3" stroke-miterlimit="10"/>
<path d="M-387.732 238.751C-308.414 238.037 -225.374 268.052 -147.198 238.751C-35.2508 196.644 65.458 97.7549 175.882 47.4006C221.386 26.6692 261.475 21.5094 306.443 48.1147C346.433 71.8176 382.137 112.013 416.063 153.108C476.387 226.128 539.249 326.906 615.112 352.82C704.822 383.41 792.911 242.667 865.361 175.451C905.422 138.342 952.124 100.934 999.207 120.053C1042.92 137.789 1081.43 180.796 1116.88 224.562C1182.04 304.954 1254.38 428.95 1343.35 415.959C1451.59 400.18 1532.94 249.532 1642.8 238.59" stroke="url(#paint13_linear_511_3350)" stroke-opacity="0.1" stroke-width="3" stroke-miterlimit="10"/>
<path d="M-387.703 214.219C-307.638 214.219 -224.513 249.992 -145.463 219.609C-36.7028 177.801 60.3116 78.4977 167.479 28.4199C353.611 -58.6289 450.71 262.731 614.21 324.234C702.341 357.427 785.974 221.752 857.113 155.895C896.99 119.039 941.888 85.4773 988.378 105.679C1032.64 124.913 1072.05 166.975 1108.93 209.912C1176.12 288.23 1251.26 406.583 1340.42 393.384C1449.66 377.26 1531.97 225.437 1642.84 214.219" stroke="url(#paint14_linear_511_3350)" stroke-opacity="0.1" stroke-width="3" stroke-miterlimit="10"/>
<path d="M-387.676 190.217C-306.835 191.184 -223.569 232.831 -143.575 201.55C-38.0577 160.294 55.2481 60.7608 159.073 11.1206C341.356 -75.9973 452.373 229.952 613.236 295.855C699.844 331.374 778.456 201.711 848.298 137.121C888.007 100.404 930.944 71.2647 976.772 92.3876C1021.63 113.119 1062.04 154.121 1100.39 196.16C1169.74 272.175 1247.75 384.838 1337.29 371.34C1447.6 354.732 1530.94 201.803 1642.89 190.217" stroke="url(#paint15_linear_511_3350)" stroke-opacity="0.1" stroke-width="3" stroke-miterlimit="10"/>
<path d="M-387.648 166.721C-306.004 168.679 -222.568 216.408 -141.573 184.343C-39.2846 143.848 50.1999 44.1989 150.81 -4.77329C329.229 -91.6378 453.98 197.588 612.235 267.891C697.291 305.668 770.56 182.385 839.175 119.062C878.742 82.5519 919.55 58.0889 964.673 79.9029C1010.15 101.993 1051.61 142.097 1091.48 183.099C1163.06 256.811 1243.94 363.6 1333.93 349.803C1445.33 332.688 1529.77 178.607 1642.83 166.629" stroke="url(#paint16_linear_511_3350)" stroke-opacity="0.1" stroke-width="3" stroke-miterlimit="10"/>
<path d="M-387.619 143.732C-305.185 146.704 -221.51 200.536 -139.443 167.804C-40.3133 128.23 45.4767 28.535 142.844 -19.6078C317.469 -105.966 455.56 165.892 611.22 240.41C694.74 280.398 762.509 163.681 829.953 101.579C869.351 65.2987 908.171 45.65 952.547 68.2472C998.657 91.7427 1041.2 130.833 1082.57 170.821C1156.39 242.23 1240.12 343.122 1330.68 328.979C1443.25 311.38 1528.72 156.217 1642.91 143.732" stroke="url(#paint17_linear_511_3350)" stroke-opacity="0.1" stroke-width="3" stroke-miterlimit="10"/>
<path d="M-387.591 121.273C-304.396 125.235 -220.439 185.034 -137.427 151.748C-41.3428 113.211 40.8233 13.5392 135.088 -33.6592C306.259 -119.349 457.153 134.818 610.289 213.505C692.286 255.659 754.542 145.506 820.887 84.5097C860.115 48.4601 897.032 33.6256 940.561 56.8678C987.306 81.7916 1030.92 119.983 1073.77 158.866C1149.76 227.833 1236.29 323.036 1327.46 308.593C1441.16 290.51 1527.7 134.081 1643 121.319" stroke="url(#paint18_linear_511_3350)" stroke-opacity="0.1" stroke-width="3" stroke-miterlimit="10"/>
<path d="M-387.563 99.2982C-303.535 104.205 -219.381 169.739 -135.354 135.993C-42.1605 98.561 36.5367 -1.04174 127.868 -47.2267C295.754 -132.133 458.719 104.389 609.288 187.245C689.917 231.61 746.603 127.562 812.031 67.7864C851.133 32.0824 886.118 21.7167 928.914 45.6269C976.265 71.9788 1020.94 109.41 1065.19 147.165C1143.26 213.758 1232.45 303.364 1324.26 288.553C1439.03 270.01 1526.58 112.451 1642.94 99.2982" stroke="url(#paint19_linear_511_3350)" stroke-opacity="0.1" stroke-width="3" stroke-miterlimit="10"/>
<path d="M-387.534 77.8526C-302.717 83.5652 -218.323 154.49 -133.351 120.398C-42.8227 84.0951 32.6173 -15.5077 121.213 -60.61C207.159 -104.376 298.589 -54.9665 378.866 -2.17055C456.28 48.7595 529.872 115.561 608.443 161.746C688.057 208.552 738.834 109.41 803.769 51.1782C889.996 -26.1038 978.31 71.9096 1057.23 135.463C1137.2 199.776 1228.9 284.038 1321.31 268.904C1437.1 249.969 1525.61 91.3049 1643 77.8295" stroke="url(#paint20_linear_511_3350)" stroke-opacity="0.1" stroke-width="3" stroke-miterlimit="10"/>
<path d="M-387.507 56.8908C-301.9 63.2715 -217.492 139.102 -131.434 104.757C-43.3176 69.56 29.1189 -29.9737 115.332 -74.0855C200.487 -117.714 294.329 -70.3308 374.986 -21.9806C453.966 25.3791 529.138 87.9188 607.694 137.121C686.25 186.324 732.135 92.042 796.237 34.6391C880.505 -40.8001 972.499 64.5845 1050.05 123.669C1131.7 185.863 1225.72 265.011 1318.65 249.67C1435.33 230.39 1524.72 70.6657 1642.97 56.8908" stroke="url(#paint21_linear_511_3350)" stroke-opacity="0.1" stroke-width="3" stroke-miterlimit="10"/>
<path d="M-387.479 36.4591C-301.069 43.3695 -216.731 123.439 -129.672 88.8864C-43.6561 54.7718 26.1153 -44.7159 110.044 -87.9753C194.551 -131.396 290.536 -85.9483 371.56 -41.6061C451.935 2.41352 528.616 61.1985 607.045 113.419C644.046 138.043 671.162 139.056 706.936 107.291C736.012 81.4692 760.604 43.9684 789.638 17.9621C828.373 -16.7745 859.226 -15.8071 899.795 10.015C948.541 41.089 996.033 76.8162 1043.86 111.53C1126.88 171.605 1222.95 246.146 1316.29 230.666C1433.78 211.179 1523.92 50.3952 1643.01 36.4591" stroke="url(#paint22_linear_511_3350)" stroke-opacity="0.1" stroke-width="3" stroke-miterlimit="10"/>
<path d="M-387.45 16.5108C-300.236 23.4212 -216.152 107.314 -128.078 72.6467C-43.7683 39.4535 23.62 -60.4027 105.857 -102.556C189.926 -145.655 287.674 -102.096 369.022 -61.0937C450.37 -20.0917 528.475 35.6527 606.651 90.9364C642.778 116.482 669.189 120.099 704.652 88.4947C732.77 63.4328 756.234 26.4388 784.28 1.19259C822.804 -33.4979 853.177 -29.8124 893.041 -3.13797C942.027 29.6406 990.253 65.2986 1038.99 99.0447C1123.04 157.231 1220.99 227.625 1314.48 212.1C1432.61 192.497 1523.35 30.7463 1643.03 16.7181" stroke="url(#paint23_linear_511_3350)" stroke-opacity="0.1" stroke-width="3" stroke-miterlimit="10"/>
<path d="M-387.422 -2.88451C-299.39 3.84168 -215.786 90.6371 -126.724 55.8774C-43.6697 23.4213 21.6176 -77.195 102.712 -118.105C186.669 -160.512 285.474 -118.934 367.33 -80.8576C449.849 -42.5045 528.631 10.9134 606.482 69.2377C641.875 95.7278 667.99 101.302 703.186 69.6984C730.542 45.1662 753.061 8.40257 780.332 -16.3599C818.673 -51.1656 849.018 -45.5221 888.275 -17.8342C937.332 16.7182 986.121 52.4683 1035.6 85.5003C1120.21 142.005 1219.79 208.76 1313.21 193.35C1431.81 173.77 1522.99 11.0977 1643.17 -2.88451" stroke="url(#paint24_linear_511_3350)" stroke-opacity="0.1" stroke-width="3" stroke-miterlimit="10"/>
<path d="M-387.394 -21.7962C-298.558 -15.692 -215.672 73.1996 -125.624 38.3478C-43.4296 6.53668 20.4476 -94.5173 100.569 -134.943C184.258 -177.143 284.36 -136.464 366.428 -100.76C449.793 -64.4798 528.927 -12.5132 606.412 48.9669C641.227 76.6088 667.483 83.2889 702.495 51.4777C729.287 27.1298 751.101 -9.65682 777.851 -34.235C816.05 -69.3402 846.818 -62.7062 885.61 -33.7513C934.568 2.78198 983.724 38.7855 1033.75 71.2647C1118.61 126.341 1219.35 190.102 1312.39 174.922C1431.27 155.549 1522.68 -7.99833 1643.14 -21.7962" stroke="url(#paint25_linear_511_3350)" stroke-opacity="0.1" stroke-width="3" stroke-miterlimit="10"/>
<path d="M-387.351 -40.224C-298.064 -34.7417 -215.757 55.1173 -125.158 19.9431C-43.246 -11.8451 20.2506 -112.807 100.118 -153.003C183.723 -195.064 284.276 -153.556 366.372 -118.612C450.033 -82.9998 528.913 -31.4247 606.497 30.3318C641.185 57.9736 667.807 63.7323 702.58 32.1285C729.189 7.94188 750.862 -28.5223 777.47 -52.778C815.543 -87.4686 846.875 -81.0188 885.3 -51.2347C934.047 -13.4575 983.259 22.8224 1033.5 54.9791C1117.95 109.042 1220 172.088 1312.32 156.333C1431.03 136.108 1523.03 -24.6755 1643.18 -40.1549" stroke="url(#paint26_linear_511_3350)" stroke-opacity="0.1" stroke-width="3" stroke-miterlimit="10"/>
<path d="M-387.324 -58.3525C-297.839 -53.1467 -215.772 37.3113 -124.962 1.72241C-43.1768 -30.3421 20.644 -130.452 100.568 -170.394C184.173 -212.179 284.501 -168.851 366.469 -133.677C449.862 -97.8804 528.404 -46.3975 606.523 12.4336C680.469 68.1089 717.117 -17.5117 778.019 -70.9065C816.091 -104.284 847.621 -98.2029 885.694 -68.3036C934.229 -30.1809 983.357 6.0069 1033.58 37.795C1117.54 90.9134 1220.91 154.259 1312.57 137.167C1430.78 115.1 1523.9 -39.1415 1643.25 -58.007" stroke="url(#paint27_linear_511_3350)" stroke-opacity="0.1" stroke-width="3" stroke-miterlimit="10"/>
<path d="M-387.295 -76.2047C-297.543 -71.1831 -215.673 19.9429 -124.581 -15.9454C-42.7957 -48.1942 21.2789 -147.244 101.245 -186.818C184.85 -228.281 284.882 -183.294 366.723 -148.004C449.792 -112.185 528.038 -60.9325 606.608 -5.07296C679.933 47.078 717.893 -37.0223 778.837 -87.9985C816.91 -119.925 848.721 -114.028 886.455 -84.0826C934.765 -45.7526 983.752 -9.8412 1033.97 21.3941C1117.58 73.4299 1221.99 136.108 1312.88 117.864C1430.5 94.2765 1524.76 -53.2619 1643.24 -75.122" stroke="url(#paint28_linear_511_3350)" stroke-opacity="0.1" stroke-width="3" stroke-miterlimit="10"/>
<path d="M-387.267 -93.7341C-297.204 -88.8507 -215.461 3.01237 -124.031 -33.0372C-42.3443 -65.24 22.111 -163.161 102.134 -202.32C185.738 -243.092 285.446 -196.976 367.133 -161.664C449.806 -125.96 527.883 -75.0989 606.735 -22.326C679.539 26.3467 718.795 -55.8878 779.895 -104.491C818.066 -134.828 850.117 -128.931 887.569 -99.0091C935.611 -60.6099 984.499 -25.1132 1034.63 5.38495C1118.04 56.1768 1223.07 117.311 1313.35 98.1233C1430.38 73.2687 1525.74 -67.3361 1643.31 -91.8913" stroke="url(#paint29_linear_511_3350)" stroke-opacity="0.1" stroke-width="3" stroke-miterlimit="10"/>
<path d="M-387.239 -110.964C-296.795 -106.127 -215.207 -13.5497 -123.312 -49.6223C-41.6956 -81.6408 23.1546 -178.456 103.248 -216.832C186.824 -256.89 286.024 -209.738 367.682 -174.54C449.905 -139.067 527.742 -88.7355 606.919 -39.1415C679.172 6.12207 719.811 -73.9471 781.192 -119.925C819.49 -148.626 851.796 -142.522 889.008 -112.692C936.674 -74.0977 985.587 -39.756 1035.53 -9.81804C1118.87 39.5687 1224.2 98.4458 1313.95 78.3825C1430.23 52.5143 1526.75 -80.9958 1643.29 -107.877" stroke="url(#paint30_linear_511_3350)" stroke-opacity="0.1" stroke-width="3" stroke-miterlimit="10"/>
<path d="M-387.196 -127.872C-296.344 -123.034 -214.784 -29.6509 -122.437 -65.6774C-40.8914 -97.4425 24.3959 -192.968 104.588 -230.561C188.136 -269.72 286.913 -221.831 368.416 -186.795C450.202 -151.69 527.827 -102.05 607.187 -55.6803C678.905 -13.7568 721.01 -91.4535 782.758 -134.644C821.239 -161.572 853.784 -155.122 890.785 -125.43C938.165 -87.0915 986.899 -53.3933 1036.73 -24.5141C1120.11 23.3293 1225.43 79.0046 1314.7 58.4114C1430.23 31.7601 1527.85 -94.448 1643.38 -123.426" stroke="url(#paint31_linear_511_3350)" stroke-opacity="0.1" stroke-width="3" stroke-miterlimit="10"/>
<path d="M-387.168 -144.411C-295.85 -139.55 -214.304 -45.3609 -121.436 -81.111C-39.9465 -112.485 25.8061 -206.628 106.026 -243.323C189.532 -281.514 287.787 -233.049 369.22 -198.312C450.399 -163.76 527.996 -114.903 607.441 -71.828C678.651 -33.1985 722.307 -108.246 784.478 -148.511C823.171 -173.573 855.97 -166.639 892.816 -136.994C939.871 -99.0216 988.386 -66.0815 1038.06 -38.3813C1121.57 7.68843 1226.57 59.6551 1315.46 38.5782C1430.19 11.3971 1528.87 -107.371 1643.35 -138.122" stroke="url(#paint32_linear_511_3350)" stroke-opacity="0.1" stroke-width="3" stroke-miterlimit="10"/>
<path d="M-387.139 -160.627C-295.314 -155.652 -213.698 -60.5638 -120.293 -96.1297C-38.8606 -126.95 27.3714 -219.597 107.676 -255.301C191.125 -292.387 288.845 -243.576 370.094 -209.231C450.709 -175.139 528.222 -127.388 607.695 -87.6298C678.411 -52.2713 723.703 -124.486 786.34 -161.664C825.272 -184.699 858.325 -177.235 895.058 -147.843C941.801 -110.321 990.115 -78.2607 1039.63 -51.9027C1123.42 -7.60668 1227.83 39.9603 1316.39 18.5149C1430.29 -9.12699 1529.98 -120.178 1643.39 -152.519" stroke="url(#paint33_linear_511_3350)" stroke-opacity="0.1" stroke-width="3" stroke-miterlimit="10"/>
<path d="M-387.112 -176.475C-294.737 -171.362 -213.135 -75.3523 -119.04 -110.434C-37.6631 -140.794 29.0906 -231.874 109.48 -266.473C192.859 -302.338 289.972 -253.366 371.109 -219.459C451.16 -185.989 528.602 -139.435 608.004 -103.04C678.241 -70.7914 725.268 -140.057 788.397 -174.034C827.598 -195.111 860.904 -186.841 897.553 -157.909C943.97 -120.956 992.054 -89.8757 1041.38 -64.9406C1125.49 -22.6716 1229.05 19.989 1317.37 -1.70985C1430.41 -29.3517 1531.05 -132.778 1643.39 -166.455" stroke="url(#paint34_linear_511_3350)" stroke-opacity="0.1" stroke-width="3" stroke-miterlimit="10"/>
<path d="M-387.084 -191.932C-294.13 -186.634 -212.444 -89.7031 -117.756 -124.301C-36.3373 -153.947 30.9382 -243.461 111.426 -276.861C194.72 -311.414 291.157 -262.465 372.293 -229.064C451.752 -196.308 529.138 -151.091 608.456 -118.082C678.213 -89.035 727.073 -155.076 790.724 -185.689C830.207 -204.67 863.753 -195.594 900.373 -166.801C946.452 -130.497 994.296 -100.502 1043.41 -77.126C1127.85 -37.0223 1230.36 0.38632 1318.48 -21.5659C1430.64 -49.369 1532.18 -144.733 1643.45 -179.562" stroke="url(#paint35_linear_511_3350)" stroke-opacity="0.1" stroke-width="3" stroke-miterlimit="10"/>
<defs>
<linearGradient id="paint0_linear_511_3350" x1="1.4635e+06" y1="15448.7" x2="1.4635e+06" y2="4548.65" gradientUnits="userSpaceOnUse">
<stop stop-color="white"/>
<stop offset="1" stop-color="white"/>
</linearGradient>
<linearGradient id="paint1_linear_511_3350" x1="1.46348e+06" y1="19637.5" x2="1.46348e+06" y2="5641.19" gradientUnits="userSpaceOnUse">
<stop stop-color="white"/>
<stop offset="1" stop-color="white"/>
</linearGradient>
<linearGradient id="paint2_linear_511_3350" x1="1.46352e+06" y1="23838.8" x2="1.46352e+06" y2="6737.66" gradientUnits="userSpaceOnUse">
<stop stop-color="white"/>
<stop offset="1" stop-color="white"/>
</linearGradient>
<linearGradient id="paint3_linear_511_3350" x1="1.46347e+06" y1="27832.4" x2="1.46347e+06" y2="7779.28" gradientUnits="userSpaceOnUse">
<stop stop-color="white"/>
<stop offset="1" stop-color="white"/>
</linearGradient>
<linearGradient id="paint4_linear_511_3350" x1="1.4635e+06" y1="31794.1" x2="1.4635e+06" y2="8811.5" gradientUnits="userSpaceOnUse">
<stop stop-color="white"/>
<stop offset="1" stop-color="white"/>
</linearGradient>
<linearGradient id="paint5_linear_511_3350" x1="1.4635e+06" y1="34836.4" x2="1.4635e+06" y2="9600.56" gradientUnits="userSpaceOnUse">
<stop stop-color="white"/>
<stop offset="1" stop-color="white"/>
</linearGradient>
<linearGradient id="paint6_linear_511_3350" x1="1.4635e+06" y1="37089.9" x2="1.4635e+06" y2="10179.9" gradientUnits="userSpaceOnUse">
<stop stop-color="white"/>
<stop offset="1" stop-color="white"/>
</linearGradient>
<linearGradient id="paint7_linear_511_3350" x1="1.46355e+06" y1="38291.8" x2="1.46355e+06" y2="10479.6" gradientUnits="userSpaceOnUse">
<stop stop-color="white"/>
<stop offset="1" stop-color="white"/>
</linearGradient>
<linearGradient id="paint8_linear_511_3350" x1="1.4635e+06" y1="38824" x2="1.4635e+06" y2="10599.9" gradientUnits="userSpaceOnUse">
<stop stop-color="white"/>
<stop offset="1" stop-color="white"/>
</linearGradient>
<linearGradient id="paint9_linear_511_3350" x1="1.46347e+06" y1="39363.6" x2="1.46347e+06" y2="10722" gradientUnits="userSpaceOnUse">
<stop stop-color="white"/>
<stop offset="1" stop-color="white"/>
</linearGradient>
<linearGradient id="paint10_linear_511_3350" x1="1.46348e+06" y1="39667.9" x2="1.46348e+06" y2="10783.1" gradientUnits="userSpaceOnUse">
<stop stop-color="white"/>
<stop offset="1" stop-color="white"/>
</linearGradient>
<linearGradient id="paint11_linear_511_3350" x1="1.46354e+06" y1="39753.8" x2="1.46354e+06" y2="10787.3" gradientUnits="userSpaceOnUse">
<stop stop-color="white"/>
<stop offset="1" stop-color="white"/>
</linearGradient>
<linearGradient id="paint12_linear_511_3350" x1="1.4635e+06" y1="39648.4" x2="1.4635e+06" y2="10741.8" gradientUnits="userSpaceOnUse">
<stop stop-color="white"/>
<stop offset="1" stop-color="white"/>
</linearGradient>
<linearGradient id="paint13_linear_511_3350" x1="1.4635e+06" y1="39369.7" x2="1.4635e+06" y2="10651.3" gradientUnits="userSpaceOnUse">
<stop stop-color="white"/>
<stop offset="1" stop-color="white"/>
</linearGradient>
<linearGradient id="paint14_linear_511_3350" x1="1.46352e+06" y1="38732.9" x2="1.46352e+06" y2="10467.5" gradientUnits="userSpaceOnUse">
<stop stop-color="white"/>
<stop offset="1" stop-color="white"/>
</linearGradient>
<linearGradient id="paint15_linear_511_3350" x1="1.46353e+06" y1="38306.2" x2="1.46353e+06" y2="10339.2" gradientUnits="userSpaceOnUse">
<stop stop-color="white"/>
<stop offset="1" stop-color="white"/>
</linearGradient>
<linearGradient id="paint16_linear_511_3350" x1="1.46346e+06" y1="37791.1" x2="1.46346e+06" y2="10188" gradientUnits="userSpaceOnUse">
<stop stop-color="white"/>
<stop offset="1" stop-color="white"/>
</linearGradient>
<linearGradient id="paint17_linear_511_3350" x1="1.46351e+06" y1="37244.3" x2="1.46351e+06" y2="10029.1" gradientUnits="userSpaceOnUse">
<stop stop-color="white"/>
<stop offset="1" stop-color="white"/>
</linearGradient>
<linearGradient id="paint18_linear_511_3350" x1="1.46355e+06" y1="36666.2" x2="1.46355e+06" y2="9862.26" gradientUnits="userSpaceOnUse">
<stop stop-color="white"/>
<stop offset="1" stop-color="white"/>
</linearGradient>
<linearGradient id="paint19_linear_511_3350" x1="1.46348e+06" y1="36080.5" x2="1.46348e+06" y2="9693.7" gradientUnits="userSpaceOnUse">
<stop stop-color="white"/>
<stop offset="1" stop-color="white"/>
</linearGradient>
<linearGradient id="paint20_linear_511_3350" x1="1.46351e+06" y1="35317.8" x2="1.46351e+06" y2="9478.97" gradientUnits="userSpaceOnUse">
<stop stop-color="white"/>
<stop offset="1" stop-color="white"/>
</linearGradient>
<linearGradient id="paint21_linear_511_3350" x1="1.46346e+06" y1="34772" x2="1.46346e+06" y2="9321.49" gradientUnits="userSpaceOnUse">
<stop stop-color="white"/>
<stop offset="1" stop-color="white"/>
</linearGradient>
<linearGradient id="paint22_linear_511_3350" x1="1.46347e+06" y1="34285.6" x2="1.46347e+06" y2="9179.77" gradientUnits="userSpaceOnUse">
<stop stop-color="white"/>
<stop offset="1" stop-color="white"/>
</linearGradient>
<linearGradient id="paint23_linear_511_3350" x1="1.46346e+06" y1="33903.3" x2="1.46346e+06" y2="9065.73" gradientUnits="userSpaceOnUse">
<stop stop-color="white"/>
<stop offset="1" stop-color="white"/>
</linearGradient>
<linearGradient id="paint24_linear_511_3350" x1="1.46355e+06" y1="33573.5" x2="1.46355e+06" y2="8965.31" gradientUnits="userSpaceOnUse">
<stop stop-color="white"/>
<stop offset="1" stop-color="white"/>
</linearGradient>
<linearGradient id="paint25_linear_511_3350" x1="1.46351e+06" y1="33409.9" x2="1.46351e+06" y2="8908.75" gradientUnits="userSpaceOnUse">
<stop stop-color="white"/>
<stop offset="1" stop-color="white"/>
</linearGradient>
<linearGradient id="paint26_linear_511_3350" x1="1.46351e+06" y1="33331.5" x2="1.46351e+06" y2="8874.57" gradientUnits="userSpaceOnUse">
<stop stop-color="white"/>
<stop offset="1" stop-color="white"/>
</linearGradient>
<linearGradient id="paint27_linear_511_3350" x1="1.46354e+06" y1="33115.5" x2="1.46354e+06" y2="8803.97" gradientUnits="userSpaceOnUse">
<stop stop-color="white"/>
<stop offset="1" stop-color="white"/>
</linearGradient>
<linearGradient id="paint28_linear_511_3350" x1="1.46351e+06" y1="32790.9" x2="1.46351e+06" y2="8704.73" gradientUnits="userSpaceOnUse">
<stop stop-color="white"/>
<stop offset="1" stop-color="white"/>
</linearGradient>
<linearGradient id="paint29_linear_511_3350" x1="1.46354e+06" y1="32317.3" x2="1.46354e+06" y2="8566.04" gradientUnits="userSpaceOnUse">
<stop stop-color="white"/>
<stop offset="1" stop-color="white"/>
</linearGradient>
<linearGradient id="paint30_linear_511_3350" x1="1.46351e+06" y1="31750.1" x2="1.46351e+06" y2="8402.78" gradientUnits="userSpaceOnUse">
<stop stop-color="white"/>
<stop offset="1" stop-color="white"/>
</linearGradient>
<linearGradient id="paint31_linear_511_3350" x1="1.46354e+06" y1="31072.1" x2="1.46354e+06" y2="8210.18" gradientUnits="userSpaceOnUse">
<stop stop-color="white"/>
<stop offset="1" stop-color="white"/>
</linearGradient>
<linearGradient id="paint32_linear_511_3350" x1="1.4635e+06" y1="30316.1" x2="1.4635e+06" y2="7997.25" gradientUnits="userSpaceOnUse">
<stop stop-color="white"/>
<stop offset="1" stop-color="white"/>
</linearGradient>
<linearGradient id="paint33_linear_511_3350" x1="1.46351e+06" y1="29460.1" x2="1.46351e+06" y2="7757.9" gradientUnits="userSpaceOnUse">
<stop stop-color="white"/>
<stop offset="1" stop-color="white"/>
</linearGradient>
<linearGradient id="paint34_linear_511_3350" x1="1.46349e+06" y1="28510" x2="1.46349e+06" y2="7493.76" gradientUnits="userSpaceOnUse">
<stop stop-color="white"/>
<stop offset="1" stop-color="white"/>
</linearGradient>
<linearGradient id="paint35_linear_511_3350" x1="1.46351e+06" y1="27530.1" x2="1.46351e+06" y2="7222.15" gradientUnits="userSpaceOnUse">
<stop stop-color="white"/>
<stop offset="1" stop-color="white"/>
</linearGradient>
</defs>
</svg>
